<svg aria-hidden="true" style="position: absolute; width: 0; height: 0; overflow: hidden;" version="1.1" xmlns="http://www.w3.org/2000/svg" xmlns:xlink="http://www.w3.org/1999/xlink">
<defs>
<symbol id="avatar" viewBox="0 0 32 32">
<path fill="#fff" style="fill: var(--color1, #fff)" d="M32 16c0 8.837-7.163 16-16 16s-16-7.163-16-16c0-8.837 7.163-16 16-16s16 7.163 16 16z"></path>
<path fill="#fff" style="fill: var(--color1, #fff); stroke: var(--color2, #ff662d)" stroke="#ff662d" stroke-linejoin="miter" stroke-linecap="butt" stroke-miterlimit="4" stroke-width="1.8824" d="M31.059 16c0 8.317-6.742 15.059-15.059 15.059s-15.059-6.742-15.059-15.059c0-8.317 6.742-15.059 15.059-15.059s15.059 6.742 15.059 15.059z"></path>
<path fill="#ff662d" style="fill: var(--color2, #ff662d)" d="M4.522 27.147c-2.799-2.881-4.522-6.813-4.522-11.147 0-8.837 7.163-16 16-16s16 7.163 16 16v-0.001c0 0.008 0 0.015 0 0.023 0 4.329-1.725 8.256-4.522 11.126l-0.026-0.039-0.025-0.040c-2.003-2.977-5.403-4.936-9.261-4.936-0.004 0-0.008 0-0.012 0h-4.306c-0.004 0-0.008 0-0.012 0-3.858 0-7.258 1.959-9.286 4.976l-0.026 0.039zM16 6.588c-3.832 0-6.949 3.117-6.949 6.949s3.117 6.949 6.949 6.949 6.949-3.117 6.949-6.949-3.118-6.949-6.949-6.949z"></path>
</symbol>
<symbol id="star-filled" viewBox="0 0 34 32">
<path fill="#ff662d" style="fill: var(--color2, #ff662d)" d="M17.067 0l4.815 10.438 11.415 1.355-8.439 7.806 2.24 11.275-10.031-5.615-10.031 5.615 2.24-11.275-8.439-7.808 11.413-1.353 4.817-10.438z"></path>
</symbol>
<symbol id="icon-star-empty" viewBox="0 0 32 32">
<path d="M32 12.408l-11.056-1.607-4.944-10.018-4.944 10.018-11.056 1.607 8 7.798-1.889 11.011 9.889-5.199 9.889 5.199-1.889-11.011 8-7.798zM16 23.547l-6.983 3.671 1.334-7.776-5.65-5.507 7.808-1.134 3.492-7.075 3.492 7.075 7.807 1.134-5.65 5.507 1.334 7.776-6.983-3.671z"></path>
</symbol>
<symbol id="human" viewBox="0 0 32 32">
<path fill="#fff" style="fill: var(--color1, #fff)" d="M16 0c-4.658 0.005-8.432 3.78-8.437 8.437v0c0.005 4.658 3.78 8.432 8.437 8.437h0c4.658-0.005 8.432-3.78 8.437-8.437v-0c-0.005-4.658-3.78-8.432-8.437-8.437h-0zM29.906 24.917c-2.462-3.664-6.592-6.043-11.277-6.043-0.005 0-0.010 0-0.015 0h-5.229c-0.003 0-0.007 0-0.011 0-4.686 0-8.815 2.379-11.247 5.996l-0.031 0.049-0.16 0.235v6.846h28.126v-6.846l-0.156-0.236z"></path>
</symbol>
<symbol id="door" viewBox="0 0 30 32">
<path fill="#ff662d" style="fill: var(--color2, #ff662d)" d="M29.091 0h-29.091v29.091h29.091z"></path>
<path fill="#0f1d2d" style="fill: var(--color3, #0f1d2d)" d="M22.545 5.817h-16v23.274h16z"></path>
<path fill="#ff662d" style="fill: var(--color2, #ff662d)" d="M22.545 5.817l-11.637 2.911v23.272l11.637-2.909v-23.274z"></path>
</symbol>
</defs>
</svg>
